<svg width="21" height="20" viewBox="0 0 21 20" fill="none" xmlns="http://www.w3.org/2000/svg">
<path d="M3.25 8.5285L3.87268 8.47467C3.84384 8.14121 3.55744 7.88965 3.22306 7.90408C2.88867 7.91851 2.625 8.1938 2.625 8.5285H3.25ZM17.6134 10.0478L17.0255 13.4476L18.2572 13.6607L18.8452 10.2608L17.6134 10.0478ZM11.7875 17.7083H7.91363V18.9583H11.7875V17.7083ZM7.15415 17.0104L6.47735 9.18317L5.232 9.29083L5.9088 17.1181L7.15415 17.0104ZM17.0255 13.4476C16.6032 15.8897 14.4011 17.7083 11.7875 17.7083V18.9583C14.976 18.9583 17.7257 16.7342 18.2572 13.6607L17.0255 13.4476ZM11.7957 4.25012L11.2434 7.6206L12.477 7.82271L13.0293 4.45224L11.7957 4.25012ZM6.73978 8.538L7.93872 7.50487L7.12274 6.55795L5.92379 7.59111L6.73978 8.538ZM10.12 4.14338L10.5164 2.61518L9.3065 2.30131L8.91007 3.82952L10.12 4.14338ZM11.1152 2.31534L11.236 2.35415L11.6183 1.16406L11.4975 1.12525L11.1152 2.31534ZM9.51958 5.67999C9.7795 5.19332 9.98142 4.67782 10.12 4.14338L8.91007 3.82952C8.79644 4.26756 8.63083 4.69077 8.41702 5.09103L9.51958 5.67999ZM11.236 2.35415C11.4913 2.43618 11.6727 2.63341 11.7323 2.8632L12.9423 2.54934C12.771 1.88933 12.2658 1.37207 11.6183 1.16406L11.236 2.35415ZM10.5164 2.61518C10.5457 2.50267 10.6269 2.39928 10.7498 2.34003L10.2072 1.21396C9.76383 1.42758 9.43083 1.82189 9.3065 2.30131L10.5164 2.61518ZM10.7498 2.34003C10.8621 2.28593 10.9943 2.27651 11.1152 2.31534L11.4975 1.12525C11.0728 0.988792 10.6093 1.02017 10.2072 1.21396L10.7498 2.34003ZM12.5448 9.1535H16.8623V7.9035H12.5448V9.1535ZM4.68234 17.8384L3.87268 8.47467L2.62732 8.58233L3.43699 17.9461L4.68234 17.8384ZM3.875 17.9272V8.5285H2.625V17.9272H3.875ZM3.43699 17.9461C3.426 17.819 3.52622 17.7083 3.65559 17.7083V18.9583C4.26057 18.9583 4.73435 18.4399 4.68234 17.8384L3.43699 17.9461ZM13.0293 4.45224C13.133 3.8188 13.1034 3.17065 12.9423 2.54934L11.7323 2.8632C11.8498 3.31603 11.8713 3.78843 11.7957 4.25012L13.0293 4.45224ZM7.91363 17.7083C7.5187 17.7083 7.18834 17.4058 7.15415 17.0104L5.9088 17.1181C5.99877 18.1585 6.86892 18.9583 7.91363 18.9583V17.7083ZM7.93872 7.50487C8.50527 7.01667 9.116 6.43556 9.51958 5.67999L8.41702 5.09103C8.12837 5.63139 7.66875 6.08744 7.12274 6.55795L7.93872 7.50487ZM18.8452 10.2608C19.0579 9.03042 18.1118 7.9035 16.8623 7.9035V9.1535C17.3345 9.1535 17.6943 9.57992 17.6134 10.0478L18.8452 10.2608ZM3.65559 17.7083C3.77743 17.7083 3.875 17.807 3.875 17.9272H2.625C2.625 18.4961 3.08574 18.9583 3.65559 18.9583V17.7083ZM11.2434 7.6206C11.112 8.42301 11.7305 9.1535 12.5448 9.1535V7.9035C12.5032 7.9035 12.4699 7.86584 12.477 7.82271L11.2434 7.6206ZM6.47735 9.18317C6.45617 8.93817 6.55396 8.69817 6.73978 8.538L5.92379 7.59111C5.43352 8.01359 5.17624 8.64608 5.232 9.29083L6.47735 9.18317Z" fill="#858484"/>
</svg>
