<svg width="20" height="20" viewBox="0 0 20 20" fill="none" xmlns="http://www.w3.org/2000/svg">
<path d="M16.891 13.5541L17.4789 10.1543C17.6258 9.30513 16.9728 8.52846 16.1119 8.52846H11.7943C11.3664 8.52846 11.0406 8.14436 11.1098 7.72161L11.6621 4.35114C11.7518 3.80359 11.7262 3.24329 11.5868 2.70623C11.4714 2.26133 11.1282 1.90409 10.6768 1.75907L10.5559 1.72025C10.2831 1.63261 9.98534 1.653 9.72809 1.77695C9.44501 1.91339 9.23784 2.16224 9.16109 2.4582L8.76467 3.98641C8.63851 4.47265 8.45484 4.942 8.21792 5.38548C7.87179 6.03344 7.33664 6.55201 6.78037 7.03137L5.58142 8.06454C5.24337 8.35588 5.06583 8.79213 5.1043 9.23696L5.78111 17.0642C5.84318 17.7821 6.44343 18.3333 7.16325 18.3333H11.0371C13.9382 18.3333 16.414 16.312 16.891 13.5541Z" fill="#D71A30"/>
<path opacity="0.5" fill-rule="evenodd" clip-rule="evenodd" d="M2.47306 7.90428C2.80744 7.88985 3.09384 8.1414 3.12268 8.47488L3.93234 17.8386C3.98435 18.4401 3.51057 18.9585 2.90559 18.9585C2.33574 18.9585 1.875 18.4962 1.875 17.9275V8.52871C1.875 8.194 2.13867 7.91871 2.47306 7.90428Z" fill="#D71A30"/>
</svg>
